<mxfile host="app.diagrams.net" modified="2023-04-18T12:42:10.374Z" agent="Mozilla/5.0 (Windows NT 10.0; Win64; x64; rv:109.0) Gecko/20100101 Firefox/111.0" etag="3y0uGrW5rxRgbpMj6MRG" version="21.1.8" type="device">
  <diagram name="Page-1" id="b5b7bab2-c9e2-2cf4-8b2a-24fd1a2a6d21">
    <mxGraphModel dx="1434" dy="782" grid="1" gridSize="10" guides="1" tooltips="1" connect="1" arrows="1" fold="1" page="1" pageScale="1" pageWidth="827" pageHeight="1169" background="none" math="0" shadow="0">
      <root>
        <mxCell id="0" />
        <mxCell id="1" parent="0" />
        <mxCell id="6e0c8c40b5770093-72" value="" style="shape=folder;fontStyle=1;spacingTop=10;tabWidth=194;tabHeight=22;tabPosition=left;html=1;rounded=0;shadow=0;comic=0;labelBackgroundColor=none;strokeWidth=1;fillColor=none;fontFamily=Verdana;fontSize=10;align=center;" parent="1" vertex="1">
          <mxGeometry x="326.5" y="114.5" width="733.5" height="635.5" as="geometry" />
        </mxCell>
        <mxCell id="6e0c8c40b5770093-33" value="" style="shape=folder;fontStyle=1;spacingTop=10;tabWidth=123;tabHeight=24;tabPosition=left;html=1;rounded=0;shadow=0;comic=0;labelBackgroundColor=none;strokeColor=#000000;strokeWidth=1;fillColor=#ffffff;fontFamily=Verdana;fontSize=10;fontColor=#000000;align=center;" parent="1" vertex="1">
          <mxGeometry x="380" y="180" width="650" height="540" as="geometry" />
        </mxCell>
        <mxCell id="6e0c8c40b5770093-73" value="Schicksal" style="text;html=1;align=left;verticalAlign=top;spacingTop=-4;fontSize=10;fontFamily=Verdana" parent="1" vertex="1">
          <mxGeometry x="327.5" y="114.5" width="130" height="20" as="geometry" />
        </mxCell>
        <mxCell id="v1_WOpcQjyP-92pul4lI-1" value="Anova" style="text;html=1;align=center;verticalAlign=middle;resizable=0;points=[];autosize=1;strokeColor=none;fillColor=none;" vertex="1" parent="1">
          <mxGeometry x="370" y="180" width="60" height="30" as="geometry" />
        </mxCell>
        <mxCell id="v1_WOpcQjyP-92pul4lI-17" value="AnovaHtmlSaver" style="rounded=0;whiteSpace=wrap;html=1;" vertex="1" parent="1">
          <mxGeometry x="400" y="220" width="100" height="20" as="geometry" />
        </mxCell>
        <mxCell id="v1_WOpcQjyP-92pul4lI-18" value="DifferenceInfo" style="rounded=0;whiteSpace=wrap;html=1;" vertex="1" parent="1">
          <mxGeometry x="692" y="220" width="100" height="20" as="geometry" />
        </mxCell>
        <mxCell id="v1_WOpcQjyP-92pul4lI-19" value="FisherCriteria" style="rounded=0;whiteSpace=wrap;html=1;" vertex="1" parent="1">
          <mxGeometry x="692" y="580" width="100" height="20" as="geometry" />
        </mxCell>
        <mxCell id="v1_WOpcQjyP-92pul4lI-20" value="FisherMetrics" style="rounded=0;whiteSpace=wrap;html=1;" vertex="1" parent="1">
          <mxGeometry x="400" y="350" width="100" height="20" as="geometry" />
        </mxCell>
        <mxCell id="v1_WOpcQjyP-92pul4lI-21" value="FIsherTableProcessor" style="rounded=0;whiteSpace=wrap;html=1;" vertex="1" parent="1">
          <mxGeometry x="400" y="550" width="130" height="20" as="geometry" />
        </mxCell>
        <mxCell id="v1_WOpcQjyP-92pul4lI-22" value="VariantsComparator" style="rounded=0;whiteSpace=wrap;html=1;" vertex="1" parent="1">
          <mxGeometry x="692" y="410" width="130" height="20" as="geometry" />
        </mxCell>
        <mxCell id="v1_WOpcQjyP-92pul4lI-23" value="" style="rounded=0;whiteSpace=wrap;html=1;" vertex="1" parent="1">
          <mxGeometry x="400" y="240" width="210" height="80" as="geometry" />
        </mxCell>
        <mxCell id="v1_WOpcQjyP-92pul4lI-25" value="" style="rounded=0;whiteSpace=wrap;html=1;" vertex="1" parent="1">
          <mxGeometry x="692" y="240" width="270" height="140" as="geometry" />
        </mxCell>
        <mxCell id="v1_WOpcQjyP-92pul4lI-26" value="" style="rounded=0;whiteSpace=wrap;html=1;" vertex="1" parent="1">
          <mxGeometry x="400" y="370" width="240" height="130" as="geometry" />
        </mxCell>
        <mxCell id="v1_WOpcQjyP-92pul4lI-27" value="" style="rounded=0;whiteSpace=wrap;html=1;" vertex="1" parent="1">
          <mxGeometry x="400" y="570" width="210" height="80" as="geometry" />
        </mxCell>
        <mxCell id="v1_WOpcQjyP-92pul4lI-28" value="" style="rounded=0;whiteSpace=wrap;html=1;" vertex="1" parent="1">
          <mxGeometry x="692" y="430" width="230" height="130" as="geometry" />
        </mxCell>
        <mxCell id="v1_WOpcQjyP-92pul4lI-29" value="" style="rounded=0;whiteSpace=wrap;html=1;" vertex="1" parent="1">
          <mxGeometry x="692" y="600" width="210" height="80" as="geometry" />
        </mxCell>
        <mxCell id="v1_WOpcQjyP-92pul4lI-31" value="FisherTestResult" style="rounded=0;whiteSpace=wrap;html=1;" vertex="1" parent="1">
          <mxGeometry x="410" y="380" width="100" height="20" as="geometry" />
        </mxCell>
        <mxCell id="v1_WOpcQjyP-92pul4lI-32" value="" style="rounded=0;whiteSpace=wrap;html=1;" vertex="1" parent="1">
          <mxGeometry x="410" y="400" width="210" height="80" as="geometry" />
        </mxCell>
        <mxCell id="v1_WOpcQjyP-92pul4lI-35" value="DifferenceInfoList" style="rounded=0;whiteSpace=wrap;html=1;" vertex="1" parent="1">
          <mxGeometry x="712" y="260" width="150" height="20" as="geometry" />
        </mxCell>
        <mxCell id="v1_WOpcQjyP-92pul4lI-36" value="" style="rounded=0;whiteSpace=wrap;html=1;" vertex="1" parent="1">
          <mxGeometry x="712" y="280" width="210" height="80" as="geometry" />
        </mxCell>
        <mxCell id="v1_WOpcQjyP-92pul4lI-41" value="MultiVariantsComparator" style="rounded=0;whiteSpace=wrap;html=1;" vertex="1" parent="1">
          <mxGeometry x="702" y="440" width="150" height="20" as="geometry" />
        </mxCell>
        <mxCell id="v1_WOpcQjyP-92pul4lI-42" value="" style="rounded=0;whiteSpace=wrap;html=1;" vertex="1" parent="1">
          <mxGeometry x="702" y="460" width="210" height="80" as="geometry" />
        </mxCell>
      </root>
    </mxGraphModel>
  </diagram>
</mxfile>
